<?xml version="1.0" encoding="utf-8"?>
<!-- Generator: Adobe Illustrator 22.1.0, SVG Export Plug-In . SVG Version: 6.00 Build 0)  -->
<svg version="1.1" id="Layer_1" xmlns="http://www.w3.org/2000/svg" xmlns:xlink="http://www.w3.org/1999/xlink" x="0px" y="0px"
	 viewBox="0 0 300 300" style="enable-background:new 0 0 300 300;" xml:space="preserve">
<g>
	<path d="M139.5,31.2c12.1,4,23.3,5.7,34.9,0.2c-0.2,14.1,4.1,25.7,14.3,34.9c4.4,4,9.2,6.1,15.4,6.3c29.7,1.1,55.5,11.5,74,35.6
		c20.8,27.2,25.1,57.9,14.2,89.9c-15.8,46-50.3,71.8-96,83.8c-22.1,5.8-44.6,7.4-67,1.2c-21.3-5.9-37.3-18.3-46.8-38.5
		c-2.5-5.3-11-9.1-18-7.7c-14,2.7-22.7,11-25.9,24.9c-0.5,2.1-0.9,4.3-1.5,7.2C29.1,259.8,19,256.5,8,255.5
		c2.9-27.8,28.2-51.6,55.6-51.2c11.8,0.2,23.8,1.3,35.2,4.2c24.3,6.1,43-0.3,57.9-20.5c15-20.4,27-42,29.4-67.8
		c1.2-12.9-2.5-23.2-14.4-30.6C150.4,76.6,142.1,56,139.5,31.2z M160.7,271c33.4-1.6,66.4-11.8,92.5-38.8
		c17.2-17.8,27.4-38.9,28.2-64c0.2-7.5-3-10.5-10.2-8.5c-4.9,1.3-9.4,4.1-13.9,6.6c-9.8,5.4-20.3,9.2-31.3,6.5
		c-7.9-1.9-15.4-6-22.7-9.7c-8.1-4.1-10.5-3.2-15.2,4.3c-7.7,12.4-15.3,24.9-24.3,36.3c-9.6,12-21.6,21.6-37.8,23.2
		c-5.6,0.6-11.5-0.9-17.1-0.3c-3.5,0.4-7.3,2.2-9.9,4.6c-3.1,2.9-2.4,7.3-0.2,10.8c2.2,3.4,4.5,6.8,7.3,9.7
		C120,266.5,138,270.8,160.7,271z M262.9,149.1c5.8-0.1,10.6-5.1,10.4-10.7c-0.2-5.8-5.2-10.3-10.9-10.1c-5.5,0.2-10.1,5-10.1,10.4
		C252.3,144.4,257.2,149.2,262.9,149.1z M237.3,145c0-4.5-4-8.6-8.4-8.6c-4.4,0-8.5,4.2-8.4,8.6c0.1,4.4,3.8,8,8.2,8.1
		C233.4,153.3,237.2,149.7,237.3,145z M252.9,115.7c0-0.8,0-1.6,0-2.4c-2-1.3-4.1-3.6-6-3.5c-1.7,0.1-4.8,3.1-4.6,4.3
		c0.4,2,2.7,4.9,4.6,5.2C248.7,119.6,250.9,117,252.9,115.7z"/>
	<path d="M157.3,26.3c-4.8-1.1-9.8-1.8-14.4-3.5c-4.1-1.6-4.2-4.9-0.2-6.7c9.5-4.3,19.4-4.2,28.9,0c3.9,1.7,3.8,5.1-0.3,6.7
		C167,24.6,162.2,25.2,157.3,26.3z"/>
	<path d="M8.8,265.1c8.7,1.5,16.3,4.2,22.7,9.4c1.5,1.2,1.9,3.7,2.8,5.6c-1.9,0.8-3.9,2.2-5.8,2.2c-8.3,0-15.9-2.7-22.6-7.7
		c-1.8-1.4-2.6-4-3.9-6.1C4.2,267.4,6.5,266.2,8.8,265.1z"/>
</g>
</svg>
