<?xml version="1.0" encoding="utf-8"?>
<!-- Generator: Adobe Illustrator 22.1.0, SVG Export Plug-In . SVG Version: 6.00 Build 0)  -->
<svg version="1.1" id="Layer_1" xmlns="http://www.w3.org/2000/svg" xmlns:xlink="http://www.w3.org/1999/xlink" x="0px" y="0px"
	 viewBox="0 0 300 300" style="enable-background:new 0 0 300 300;" xml:space="preserve">
<g>
	<path d="M149.7,0.1c23.1,0,46.3,0.1,69.4-0.1c8.3-0.1,13.9,3,17.1,10.9c4.8,11.8,11,22.2,23.4,28c6.7,3.2,10,10,10.3,17.5
		c0.4,9.9,0.2,19.8,0.3,29.7c0.1,7.7-3.3,12.8-10.9,14.3c-4.7,0.9-5.7,3.8-6.3,7.8c-8.6,59.3-17.3,118.6-25.9,178
		c-1.7,11.4-4.2,13.7-15.5,13.7c-41.3,0-82.7,0-124,0c-10.3,0-13.3-2.7-14.8-13c-8.6-59.5-17.3-119.1-25.8-178.6
		c-0.6-4.5-2.3-7.2-7-8.1c-7-1.4-10.3-6.2-10.4-13.2c-0.1-9.4-0.2-18.9,0.1-28.3c0.3-9.2,4.5-16.9,12.4-21
		c10.8-5.7,16.9-14.9,21.1-25.5c3.5-9,9.4-12.3,19-12.1c22.4,0.5,44.9,0.2,67.3,0.2C149.7,0.2,149.7,0.1,149.7,0.1z M250.1,82.4
		c0-5.3,0-10,0-14.7c0-14.9-3.4-18.4-18.2-18.5c-28.6-0.2-57.2-0.2-85.7-0.2c-26.9,0-53.9,0.1-80.8,0.2c-6.4,0-13.3,1.1-14.3,8.6
		c-1.1,8-0.2,16.2-0.2,24.7C117.4,82.4,183.2,82.4,250.1,82.4z M93,280.8c38.4,0,76.2,0,114.2,0c2.5-16.8,4.9-33.1,7.3-49.8
		c-43.1,0-85.7,0-128.7,0C88.2,247.8,90.6,264.3,93,280.8z M71.8,136.4c52.8,0,104.6,0,156.6,0c1.7-11.7,3.3-23,4.9-34.6
		c-56.1,0-111,0-166.8,0C68.3,113.5,70,124.8,71.8,136.4z M78.8,29.9c47.5,0,95,0,142.6,0c-1.8-10.1-2.6-11.2-12.2-11.2
		c-39.7-0.1-79.4-0.1-119.1,0C81.7,18.8,80.1,20.6,78.8,29.9z"/>
</g>
</svg>
